<svg xmlns="http://www.w3.org/2000/svg" viewBox="0 0 400 300" role="img" aria-labelledby="title desc">
  <title id="title">Dessus de feuille rugueux — Orme champêtre (Ulmus minor)</title>
  <desc id="desc">Comparaison de deux surfaces : à gauche, une surface rugueuse couverte de petits points évoquant un grain ; à droite, une surface lisse. Sur l'orme champêtre, le dessus de la feuille présente ce léger grain quand on y passe le doigt.</desc>

  <text x="200" y="42" text-anchor="middle" font-family="ui-serif, Georgia, serif" font-size="14" fill="#111" font-style="italic">Passe le doigt sur le dessus de la feuille...</text>

  <rect x="55" y="80" width="130" height="130" rx="6" ry="6" fill="#c1502e" fill-opacity="0.12" stroke="#111" stroke-width="1.4"/>

  <g fill="#444" stroke="none">
    <circle cx="70" cy="92" r="1.0"/>
    <circle cx="88" cy="94" r="0.9"/>
    <circle cx="105" cy="89" r="1.1"/>
    <circle cx="120" cy="95" r="0.9"/>
    <circle cx="138" cy="92" r="1.0"/>
    <circle cx="155" cy="93" r="0.9"/>
    <circle cx="170" cy="89" r="1.0"/>

    <circle cx="78" cy="108" r="0.9"/>
    <circle cx="95" cy="105" r="1.0"/>
    <circle cx="112" cy="110" r="0.9"/>
    <circle cx="130" cy="107" r="1.1"/>
    <circle cx="148" cy="112" r="0.9"/>
    <circle cx="162" cy="106" r="1.0"/>
    <circle cx="178" cy="109" r="0.9"/>

    <circle cx="72" cy="124" r="1.0"/>
    <circle cx="90" cy="127" r="0.9"/>
    <circle cx="108" cy="122" r="1.0"/>
    <circle cx="125" cy="128" r="0.9"/>
    <circle cx="142" cy="124" r="1.1"/>
    <circle cx="158" cy="126" r="0.9"/>
    <circle cx="175" cy="123" r="1.0"/>

    <circle cx="80" cy="142" r="0.9"/>
    <circle cx="98" cy="144" r="1.0"/>
    <circle cx="115" cy="140" r="0.9"/>
    <circle cx="132" cy="145" r="1.1"/>
    <circle cx="150" cy="142" r="0.9"/>
    <circle cx="166" cy="144" r="1.0"/>
    <circle cx="179" cy="141" r="0.9"/>

    <circle cx="70" cy="158" r="1.0"/>
    <circle cx="88" cy="160" r="0.9"/>
    <circle cx="105" cy="156" r="1.0"/>
    <circle cx="122" cy="162" r="0.9"/>
    <circle cx="140" cy="158" r="1.1"/>
    <circle cx="156" cy="160" r="0.9"/>
    <circle cx="172" cy="156" r="1.0"/>

    <circle cx="76" cy="176" r="0.9"/>
    <circle cx="94" cy="178" r="1.0"/>
    <circle cx="110" cy="174" r="0.9"/>
    <circle cx="128" cy="179" r="1.1"/>
    <circle cx="145" cy="175" r="0.9"/>
    <circle cx="162" cy="178" r="1.0"/>
    <circle cx="178" cy="174" r="0.9"/>

    <circle cx="72" cy="194" r="1.0"/>
    <circle cx="90" cy="196" r="0.9"/>
    <circle cx="108" cy="192" r="1.0"/>
    <circle cx="125" cy="198" r="0.9"/>
    <circle cx="143" cy="194" r="1.1"/>
    <circle cx="160" cy="196" r="0.9"/>
    <circle cx="177" cy="193" r="1.0"/>
  </g>

  <text x="120" y="238" text-anchor="middle" font-family="ui-serif, Georgia, serif" font-size="13" fill="#c1502e" font-style="italic">rugueux — orme</text>
  <text x="120" y="256" text-anchor="middle" font-family="ui-serif, Georgia, serif" font-size="11" fill="#555" font-style="italic">comme du papier</text>
  <text x="120" y="270" text-anchor="middle" font-family="ui-serif, Georgia, serif" font-size="11" fill="#555" font-style="italic">de verre très fin</text>

  <rect x="215" y="80" width="130" height="130" rx="6" ry="6" fill="white" stroke="#111" stroke-width="1.4"/>
  <ellipse cx="265" cy="125" rx="32" ry="14" fill="none" stroke="#ccc" stroke-width="1" transform="rotate(-15 265 125)"/>
  <ellipse cx="265" cy="125" rx="20" ry="8" fill="none" stroke="#ddd" stroke-width="0.7" transform="rotate(-15 265 125)"/>

  <text x="280" y="238" text-anchor="middle" font-family="ui-serif, Georgia, serif" font-size="13" fill="#555" font-style="italic">lisse — ailleurs</text>
  <text x="280" y="256" text-anchor="middle" font-family="ui-serif, Georgia, serif" font-size="11" fill="#555" font-style="italic">type laurier, houx,</text>
  <text x="280" y="270" text-anchor="middle" font-family="ui-serif, Georgia, serif" font-size="11" fill="#555" font-style="italic">marronnier</text>
</svg>
